<svg width="416" height="122" viewBox="0 0 416 122" fill="none" xmlns="http://www.w3.org/2000/svg">
<path d="M407.168 120.697C403.033 120.697 399.345 120.417 396.105 119.859C392.975 119.3 390.237 118.35 387.89 117.009C385.655 115.668 383.811 113.88 382.358 111.645C380.906 109.298 379.788 106.448 379.006 103.095C378.335 99.7425 378 95.7193 378 91.0255V10.2257C378 8.32585 378.168 6.6495 378.503 5.19667C378.95 3.63208 379.844 2.40276 381.185 1.50871C382.638 0.502903 384.929 0 388.058 0C391.187 0 393.422 0.447026 394.763 1.34108C396.216 2.23513 397.11 3.46445 397.446 5.02904C397.893 6.48186 398.116 8.15821 398.116 10.0581V90.1873C398.116 92.3107 398.228 94.0988 398.451 95.5516C398.787 96.8927 399.29 98.0103 399.96 98.9043C400.742 99.6866 401.692 100.245 402.81 100.581C404.039 100.916 405.492 101.084 407.168 101.084C408.621 101.084 409.906 101.251 411.024 101.586C412.253 101.922 413.203 102.76 413.874 104.101C414.656 105.442 415.047 107.621 415.047 110.639C415.047 113.768 414.656 116.059 413.874 117.512C413.203 118.965 412.253 119.859 411.024 120.194C409.795 120.529 408.509 120.697 407.168 120.697Z" fill="white"/>
<path d="M349.347 118.518C350.912 119.747 353.314 120.362 356.555 120.362C359.684 120.362 361.919 119.915 363.261 119.021C364.713 118.127 365.607 116.897 365.943 115.333C366.278 113.768 366.446 112.036 366.446 110.136V48.7818C366.446 46.7702 366.278 44.9821 365.943 43.4175C365.607 41.7412 364.769 40.456 363.428 39.5619C362.087 38.5561 359.852 38.0532 356.723 38.0532C353.37 38.0532 350.912 38.7238 349.347 40.0648C347.782 41.2942 347 43.1381 347 45.5968L348.006 50.4582L348.173 107.957L347 113.489C347 115.612 347.782 117.288 349.347 118.518Z" fill="white"/>
<path d="M323.747 121.703C318.382 121.703 313.13 120.697 307.989 118.685C302.96 116.562 298.378 113.6 294.243 109.801C290.22 106.001 286.979 101.531 284.52 96.3899C282.173 91.2491 281 85.6054 281 79.4588C281 73.5357 282.118 68.0038 284.353 62.863C286.588 57.7222 289.661 53.1961 293.573 49.2846C297.484 45.3731 301.954 42.3557 306.983 40.2323C312.124 37.9972 317.6 36.8796 323.412 36.8796C331.234 36.8796 338.331 38.7795 344.701 42.5792C351.071 46.2672 356.156 51.2962 359.956 57.6663C363.756 64.0364 365.655 71.2447 365.655 79.2912C365.655 85.6613 364.482 91.4726 362.135 96.7251C359.788 101.866 356.603 106.336 352.58 110.136C348.557 113.824 344.031 116.674 339.002 118.685C334.084 120.697 328.999 121.703 323.747 121.703ZM323.412 101.922C327.099 101.922 330.62 101.028 333.972 99.2396C337.437 97.3398 340.231 94.6576 342.354 91.1932C344.589 87.7288 345.707 83.6496 345.707 78.9559C345.707 74.5974 344.701 70.7418 342.689 67.3891C340.79 64.0364 338.163 61.4101 334.811 59.5103C331.458 57.6104 327.602 56.6605 323.244 56.6605C319.109 56.6605 315.365 57.6663 312.012 59.6779C308.66 61.5778 305.978 64.2599 303.966 67.7244C302.066 71.0771 301.116 74.8768 301.116 79.1235C301.116 83.8173 302.178 87.8964 304.301 91.3608C306.425 94.7135 309.163 97.3398 312.515 99.2396C315.98 101.028 319.612 101.922 323.412 101.922Z" fill="#FF00A8"/>
<path d="M259.723 120.529C256.594 120.529 254.303 120.026 252.85 119.02C251.397 117.903 250.447 116.171 250 113.824V10.5609C250 8.66104 250.112 6.9847 250.335 5.53187C250.671 3.96728 251.509 2.73796 252.85 1.84391C254.303 0.838105 256.538 0.335205 259.555 0.335205C262.796 0.335205 265.087 0.782228 266.428 1.67627C267.769 2.57033 268.607 3.79965 268.943 5.36423C269.39 6.81707 269.613 8.49341 269.613 10.3933V110.303C269.613 112.203 269.446 113.935 269.11 115.5C268.775 117.065 267.881 118.294 266.428 119.188C265.087 120.082 262.852 120.529 259.723 120.529Z" fill="white"/>
<path d="M227.747 121.703C222.382 121.703 217.13 120.697 211.989 118.685C206.96 116.562 202.378 113.6 198.243 109.801C194.22 106.001 190.979 101.531 188.52 96.3899C186.173 91.2491 185 85.6054 185 79.4588C185 73.5357 186.118 68.0038 188.353 62.863C190.588 57.7222 193.661 53.1961 197.573 49.2846C201.484 45.3731 205.954 42.3557 210.983 40.2323C216.124 37.9972 221.6 36.8796 227.412 36.8796C235.234 36.8796 242.331 38.7795 248.701 42.5792C255.071 46.2672 260.156 51.2962 263.956 57.6663C267.756 64.0364 269.655 71.2447 269.655 79.2912C269.655 85.6613 268.482 91.4726 266.135 96.7251C263.788 101.866 260.603 106.336 256.58 110.136C252.557 113.824 248.031 116.674 243.002 118.685C238.084 120.697 232.999 121.703 227.747 121.703ZM227.412 101.922C231.099 101.922 234.62 101.028 237.972 99.2396C241.437 97.3398 244.231 94.6576 246.354 91.1932C248.589 87.7288 249.707 83.6496 249.707 78.9559C249.707 74.5974 248.701 70.7418 246.689 67.3891C244.79 64.0364 242.163 61.4101 238.811 59.5103C235.458 57.6104 231.602 56.6605 227.244 56.6605C223.109 56.6605 219.365 57.6663 216.012 59.6779C212.66 61.5778 209.978 64.2599 207.966 67.7244C206.066 71.0771 205.116 74.8768 205.116 79.1235C205.116 83.8173 206.178 87.8964 208.301 91.3608C210.425 94.7135 213.163 97.3398 216.515 99.2396C219.98 101.028 223.612 101.922 227.412 101.922Z" fill="#FFDE00"/>
<path d="M131.747 121.703C126.382 121.703 121.13 120.697 115.989 118.685C110.96 116.562 106.378 113.6 102.243 109.801C98.2199 106.001 94.979 101.531 92.5203 96.3899C90.1734 91.2491 89 85.6054 89 79.4588C89 73.5357 90.1176 68.0038 92.3527 62.863C94.5878 57.7222 97.6611 53.1961 101.573 49.2846C105.484 45.3731 109.954 42.3557 114.983 40.2323C120.124 37.9972 125.6 36.8796 131.412 36.8796C139.234 36.8796 146.331 38.7795 152.701 42.5792C159.071 46.2672 164.156 51.2962 167.956 57.6663C171.756 64.0364 173.655 71.2447 173.655 79.2912C173.655 85.6613 172.482 91.4726 170.135 96.7251C167.788 101.866 164.603 106.336 160.58 110.136C156.557 113.824 152.031 116.674 147.002 118.685C142.084 120.697 136.999 121.703 131.747 121.703ZM131.412 101.922C135.099 101.922 138.62 101.028 141.972 99.2396C145.437 97.3398 148.231 94.6576 150.354 91.1932C152.589 87.7288 153.707 83.6496 153.707 78.9559C153.707 74.5974 152.701 70.7418 150.689 67.3891C148.79 64.0364 146.163 61.4101 142.811 59.5103C139.458 57.6104 135.602 56.6605 131.244 56.6605C127.109 56.6605 123.365 57.6663 120.012 59.6779C116.66 61.5778 113.978 64.2599 111.966 67.7244C110.066 71.0771 109.116 74.8768 109.116 79.1235C109.116 83.8173 110.178 87.8964 112.301 91.3608C114.425 94.7135 117.163 97.3398 120.515 99.2396C123.98 101.028 127.612 101.922 131.412 101.922Z" fill="#00CFF5"/>
<path d="M9.7228 120.529C6.70538 120.529 4.47025 120.026 3.01742 119.02C1.67634 118.126 0.838172 116.953 0.502903 115.5C0.167634 113.935 0 112.203 0 110.303V47.6081C0 45.82 0.167634 44.1995 0.502903 42.7466C0.838172 41.2938 1.73222 40.1763 3.18505 39.394C4.63789 38.4999 6.87301 38.0529 9.89043 38.0529C12.5726 38.0529 14.5842 38.3882 15.9253 39.0587C17.2663 39.7292 18.1604 40.5674 18.6074 41.5732C19.0544 42.579 19.278 43.5848 19.278 44.5906C19.3897 45.5964 19.5015 46.3787 19.6132 46.9375L18.9427 52.3018C19.6132 50.5137 20.7308 48.7815 22.2954 47.1051C23.86 45.4288 25.7598 43.9201 27.995 42.579C30.2301 41.1262 32.6328 40.0086 35.2032 39.2263C37.8854 38.3323 40.6234 37.8853 43.4173 37.8853C48.6699 37.8853 53.3636 38.8352 57.4986 40.735C61.6336 42.6349 65.1539 45.317 68.0596 48.7815C71.077 52.2459 73.368 56.3809 74.9326 61.1864C76.4972 65.8802 77.2795 71.1886 77.2795 77.1117V110.471C77.2795 112.371 77.056 114.103 76.6089 115.668C76.2737 117.12 75.4355 118.294 74.0944 119.188C72.7533 120.082 70.4623 120.529 67.2214 120.529C64.0922 120.529 61.8012 120.026 60.3484 119.02C58.8956 118.126 58.0015 116.953 57.6662 115.5C57.331 113.935 57.1633 112.203 57.1633 110.303V76.9441C57.1633 72.9208 56.4369 69.4564 54.9841 66.5507C53.643 63.6451 51.6314 61.4099 48.9493 59.8454C46.3789 58.2808 43.0821 57.4985 39.0588 57.4985C35.1474 57.4985 31.7388 58.3367 28.8331 60.013C25.9275 61.5776 23.6923 63.8127 22.1277 66.7184C20.5632 69.624 19.7809 73.0326 19.7809 76.9441V110.471C19.7809 112.371 19.6132 114.103 19.278 115.668C18.9427 117.12 18.0486 118.294 16.5958 119.188C15.2547 120.082 12.9637 120.529 9.7228 120.529Z" fill="white"/>
</svg>
